<?xml version="1.0" encoding="UTF-8"?>
<svg version="1.1" xmlns="http://www.w3.org/2000/svg" width="1024" height="1024">
<path d="M0 0 C337.92 0 675.84 0 1024 0 C1024 337.92 1024 675.84 1024 1024 C686.08 1024 348.16 1024 0 1024 C0 686.08 0 348.16 0 0 Z " fill="#FEFEFC" transform="translate(0,0)"/>
<path d="M0 0 C24.57053249 -0.88334326 43.4989445 2.86168876 62.17578125 19.99609375 C65.64603231 23.34116541 65.64603231 23.34116541 67 25 C67 25.66 67 26.32 67 27 C68.56621094 26.93039062 68.56621094 26.93039062 70.1640625 26.859375 C104.28305922 25.82868468 135.96743203 38.41652495 160.84375 61.5390625 C169.00130334 69.32041059 175.9355078 77.4816351 182 87 C182.60642334 87.90105469 182.60642334 87.90105469 183.22509766 88.8203125 C184.39453125 90.65625 184.39453125 90.65625 186 94 C185.46484375 96.125 185.46484375 96.125 184 98 C183.48566406 98.78375 182.97132813 99.5675 182.44140625 100.375 C163.02815398 127.4970489 134.43248777 149.47159649 101.13671875 156.01171875 C99.92798096 156.25003418 99.92798096 156.25003418 98.69482422 156.49316406 C97.15593254 156.78018834 95.61173637 157.04062953 94.06298828 157.26855469 C88.8033468 158.21305508 86.6672353 160.01570378 83.45043945 164.22387695 C75.54735945 173.901525 59.6843647 179.65406893 47.81640625 181.7265625 C40.59973356 182.42721033 31.95739346 183.2299338 25 181 C25 180.34 25 179.68 25 179 C26.48198644 177.92354707 28.01301625 176.91429825 29.5625 175.9375 C36.12630629 171.48714623 40.52956659 166.09195674 44 159 C43.21890869 158.89913086 42.43781738 158.79826172 41.63305664 158.69433594 C33.32622497 157.53136716 25.47011576 155.63761762 17.4375 153.25 C15.62463501 152.72200806 15.62463501 152.72200806 13.77514648 152.18334961 C5.54481723 149.77868389 -2.67431477 147.33151864 -10.87133789 144.81542969 C-20.89798426 141.75575203 -30.63790042 140.0477539 -40.53515625 144.56640625 C-49.98691253 150.06370348 -55.78056331 158.49867066 -61.81835938 167.30175781 C-63.59975947 169.86196837 -65.46668666 172.34582831 -67.375 174.8125 C-68.28378906 175.99779297 -68.28378906 175.99779297 -69.2109375 177.20703125 C-71.15709905 179.15744206 -72.30546828 179.63795939 -75 180 C-78.8720188 172.2559624 -76.59018958 158.53021717 -74.0625 150.5625 C-73.52302734 149.11037109 -73.52302734 149.11037109 -72.97265625 147.62890625 C-71.99319617 144.98161054 -71.19520465 142.8215945 -71 140 C-72.25753204 137.29184232 -72.25753204 137.29184232 -74.1875 134.6875 C-81.88791753 123.2210731 -85.24463304 113.21227385 -85.375 99.3125 C-85.38885742 98.42151611 -85.40271484 97.53053223 -85.41699219 96.61254883 C-85.37561908 90.76097599 -84.61526609 86.27195041 -82 81 C-79.8125 79.5 -79.8125 79.5 -78 79 C-77.59910156 79.49628906 -77.19820312 79.99257813 -76.78515625 80.50390625 C-68.87303539 89.95898038 -60.84053151 95.31363653 -49 99 C-48.34 99 -47.68 99 -47 99 C-45.45415636 96.85755037 -45.45415636 96.85755037 -43.875 94.125 C-31.51273628 74.20801957 -14.3420408 57.56050406 6 46 C7.13695312 45.319375 7.13695312 45.319375 8.296875 44.625 C12.70833333 42 12.70833333 42 15 42 C13.13971364 29.58177262 10.22881487 18.14055483 3.80859375 7.19140625 C2 4 2 4 2 2 C1.34 2 0.68 2 0 2 C0 1.34 0 0.68 0 0 Z " fill="#007FD9" transform="translate(283,378)"/>
<path d="M0 0 C4.29081255 2.25105128 7.14458701 5.53837441 9.9375 9.4375 C10.36160156 9.05078125 10.78570313 8.6640625 11.22265625 8.265625 C20.92448844 -0.34874907 29.21554476 -2.33443299 41.98876953 -1.73730469 C49.17171887 -1.09298099 54.67845818 2.25779386 59.46875 7.5 C63.64918505 13.01461645 66.06718187 18.80397567 66.05102539 25.73510742 C66.05091209 27.35644844 66.05091209 27.35644844 66.05079651 29.01054382 C66.04563522 30.17624405 66.04047394 31.34194427 66.03515625 32.54296875 C66.0337413 33.73731033 66.03232635 34.93165192 66.03086853 36.16218567 C66.0252635 39.98314908 66.01271011 43.80405425 66 47.625 C65.99498565 50.21288978 65.99042263 52.80078048 65.98632812 55.38867188 C65.97529242 61.73830375 65.95802437 68.08789199 65.9375 74.4375 C58.6775 74.4375 51.4175 74.4375 43.9375 74.4375 C43.91171875 71.1375 43.8859375 67.8375 43.859375 64.4375 C43.82090745 61.22371066 43.77576225 58.01007921 43.72998047 54.79638672 C43.70184228 52.57152914 43.68059235 50.34657293 43.66650391 48.12158203 C43.64497568 44.91387697 43.59827322 41.70734897 43.546875 38.5 C43.54564636 37.51322266 43.54441772 36.52644531 43.54315186 35.50976562 C43.41630006 29.4602695 42.63427849 24.39720281 38.9375 19.4375 C34.46181717 16.95100954 30.83323944 17.21356514 25.9375 18.4375 C21.35705483 20.85735782 19.50000627 22.55075703 17.9375 27.4375 C17.61725094 29.83616335 17.61725094 29.83616335 17.61865234 32.31958008 C17.59878265 33.26017776 17.57891296 34.20077545 17.55844116 35.1698761 C17.54688995 36.1721373 17.53533875 37.1743985 17.5234375 38.20703125 C17.50407135 39.24317062 17.4847052 40.27931 17.4647522 41.34684753 C17.40509643 44.64781529 17.35862669 47.94881819 17.3125 51.25 C17.27430737 53.49155145 17.23525489 55.73308842 17.1953125 57.97460938 C17.09779211 63.46216317 17.0181113 68.94956759 16.9375 74.4375 C9.6775 74.4375 2.4175 74.4375 -5.0625 74.4375 C-5.09988281 71.2096875 -5.13726563 67.981875 -5.17578125 64.65625 C-5.2220617 61.5119774 -5.27327171 58.36782077 -5.32495117 55.22363281 C-5.35809781 53.04727289 -5.38616134 50.87082912 -5.40893555 48.69433594 C-5.44267038 45.55627897 -5.4949962 42.41898325 -5.55078125 39.28125 C-5.55717117 38.31634644 -5.5635611 37.35144287 -5.57014465 36.3572998 C-5.69827081 30.39993862 -6.49571468 25.84609703 -9.0625 20.4375 C-12.75985745 17.68597817 -16.39524926 16.77001005 -21.03515625 16.95703125 C-24.89891273 17.8727192 -27.69291558 20.32501885 -30.0625 23.4375 C-32.40924607 28.87592254 -32.40603955 34.04673869 -32.4765625 39.8671875 C-32.49592865 40.85751984 -32.5152948 41.84785217 -32.5352478 42.86819458 C-32.59479553 46.0162101 -32.6413297 49.16426268 -32.6875 52.3125 C-32.7257026 54.45314052 -32.76475565 56.59376604 -32.8046875 58.734375 C-32.90206973 63.96866982 -32.98183574 69.20281425 -33.0625 74.4375 C-40.6525 74.4375 -48.2425 74.4375 -56.0625 74.4375 C-56.0625 50.0175 -56.0625 25.5975 -56.0625 0.4375 C-49.1325 0.4375 -42.2025 0.4375 -35.0625 0.4375 C-34.7325 3.0775 -34.4025 5.7175 -34.0625 8.4375 C-33.60875 7.715625 -33.155 6.99375 -32.6875 6.25 C-24.32415995 -2.71072148 -11.31057316 -4.39431052 0 0 Z " fill="#027FD9" transform="translate(644.0625,430.5625)"/>
<path d="M0 0 C2.8100346 1.79363911 4.50940468 3.01880935 6 6 C6.41915413 10.71548401 5.98003966 13.29752649 3 17 C0.86478135 18.75503479 -1.3348743 20.40799907 -3.54296875 22.0703125 C-24.86074399 38.81273058 -38.47565008 64.93640037 -44 91 C-44.19464844 91.90105469 -44.38929688 92.80210937 -44.58984375 93.73046875 C-48.09898325 121.70332363 -42.45449257 151.29269568 -25.625 174.25 C-18.20612886 183.68650333 -10.46032146 191.60135601 -1 199 C4.84477124 203.68954248 4.84477124 203.68954248 6 206 C6.13863612 209.12232656 5.8599966 211.9926827 5 215 C2.01271458 217.91615958 -0.15635226 218.80149465 -4.1875 219.75 C-19.90665055 216.65770809 -35.84773035 195.9787389 -44.6640625 183.21484375 C-58.83106393 161.89546688 -65.38317151 138.1449757 -65.31567383 112.68334961 C-65.31251826 110.20186175 -65.33604088 107.72157553 -65.36132812 105.24023438 C-65.41455326 92.03777305 -63.64429026 79.68995242 -59.375 67.125 C-58.99649902 66.00883301 -58.99649902 66.00883301 -58.61035156 64.87011719 C-51.59600825 45.09484014 -39.4388695 28.93180388 -25 14 C-24.35160156 13.30003906 -23.70320313 12.60007812 -23.03515625 11.87890625 C-16.71282674 5.19955108 -9.70951816 -1.81024915 0 0 Z " fill="#15C8B4" transform="translate(184,373)"/>
<path d="M0 0 C0.88155762 0.00491455 1.76311523 0.0098291 2.67138672 0.01489258 C13.41683249 0.20631976 24.37280847 2.00327175 33.375 8.3125 C34.375 11.3125 34.375 11.3125 32.79296875 14.8515625 C32.05992881 16.21919419 31.3159625 17.58101252 30.5625 18.9375 C30.19318359 19.63101562 29.82386719 20.32453125 29.44335938 21.0390625 C26.64957453 26.17521273 26.64957453 26.17521273 24.375 27.3125 C22.2734375 26.38671875 22.2734375 26.38671875 19.75 25 C11.64771667 20.82117192 3.06876197 18.47693637 -6.00390625 20.96484375 C-8.20070892 21.88050569 -9.83987939 22.7390174 -11.625 24.3125 C-13.20369359 27.69591029 -13.20369359 27.69591029 -12.625 31.3125 C-8.57826749 36.72761216 -3.87551881 37.76414532 2.375 39.3125 C4.26538538 39.82027974 6.15471733 40.3319977 8.04296875 40.84765625 C8.95739746 41.09531738 9.87182617 41.34297852 10.81396484 41.59814453 C20.73314706 44.364925 29.57198124 47.58006345 35.74609375 56.234375 C39.83566003 63.76257314 39.54983542 73.07787828 37.71484375 81.25390625 C34.50947833 90.34271296 28.48021094 95.18285065 20 99.26953125 C13.11682239 102.00436521 7.07601057 102.66897742 -0.25 102.625 C-1.71433472 102.61654053 -1.71433472 102.61654053 -3.20825195 102.60791016 C-17.21363518 102.37330634 -28.47268283 98.96649208 -39.625 90.3125 C-39.00688466 85.75934052 -37.15734107 82.02790233 -35.0625 78 C-34.73314453 77.35482422 -34.40378906 76.70964844 -34.06445312 76.04492188 C-33.25675745 74.46464772 -32.44162387 72.88817895 -31.625 71.3125 C-27.67267702 73.20234639 -24.04804188 75.52678179 -20.35546875 77.875 C-14.37272835 81.02471169 -8.67975361 81.65441002 -2.0625 81.625 C-0.96905273 81.64916992 -0.96905273 81.64916992 0.14648438 81.67382812 C4.93901455 81.67814183 8.22049018 80.94347617 12.375 78.3125 C13.79541821 75.47166359 13.68952272 73.45772722 13.375 70.3125 C10.63286181 66.94830268 8.16880931 65.58471755 4.0625 64.3125 C3.00675781 63.98121094 1.95101562 63.64992188 0.86328125 63.30859375 C-2.82454098 62.25552021 -6.53139429 61.31312849 -10.25 60.375 C-20.50055973 57.66038347 -28.56841098 54.39738352 -34.625 45.3125 C-38.48878789 37.96219643 -37.89771119 26.95448679 -35.75 19.12109375 C-31.86302925 10.74620611 -25.08934973 5.63778025 -16.625 2.3125 C-10.96613724 0.35366289 -5.91736726 -0.0389672 0 0 Z " fill="#027DD8" transform="translate(541.625,404.6875)"/>
<path d="M0 0 C0.82999512 0.00563965 1.65999023 0.0112793 2.51513672 0.01708984 C12.82658831 0.22045962 21.75255142 2.28407612 29.625 9.3125 C37.39442563 18.18698617 39.09588371 28.31791611 38.91796875 39.7890625 C38.91372391 40.84032318 38.90947906 41.89158386 38.90510559 42.97470093 C38.88846139 46.29590683 38.85083614 49.61648094 38.8125 52.9375 C38.79743473 55.20441825 38.78374957 57.47134612 38.77148438 59.73828125 C38.73860466 65.26326015 38.68692216 70.78777337 38.625 76.3125 C32.685 76.3125 26.745 76.3125 20.625 76.3125 C20.13 72.8475 20.13 72.8475 19.625 69.3125 C19.23570312 69.71082031 18.84640625 70.10914063 18.4453125 70.51953125 C12.0522193 76.57381997 5.39279766 78.40043494 -3.3125 78.75 C-12.00596239 78.50416944 -21.0848002 75.55128127 -27.375 69.3125 C-32.54719491 62.28970324 -33.34604218 54.82275731 -32.375 46.3125 C-30.1315669 40.54101236 -26.16391804 36.09080825 -20.52734375 33.4453125 C-13.66179574 30.6673451 -6.8041603 30.13805933 0.5625 30.1875 C1.26181641 30.18943359 1.96113281 30.19136719 2.68164062 30.19335938 C7.41467337 30.23305862 11.96062624 30.53510437 16.625 31.3125 C16.25375 30.075 15.8825 28.8375 15.5 27.5625 C15.29117188 26.86640625 15.08234375 26.1703125 14.8671875 25.453125 C13.00579038 22.24543437 10.88947276 21.02625341 7.625 19.3125 C-2.07467606 17.9195159 -10.49591315 19.27064877 -19.375 23.3125 C-20.365 23.6425 -21.355 23.9725 -22.375 24.3125 C-23.36429461 22.44282395 -24.34100469 20.56648622 -25.3125 18.6875 C-25.85777344 17.64335937 -26.40304687 16.59921875 -26.96484375 15.5234375 C-28.34169717 12.38833082 -28.97342216 9.69795368 -29.375 6.3125 C-27.7320741 5.67989676 -26.08545109 5.05689451 -24.4375 4.4375 C-23.52097656 4.08945312 -22.60445312 3.74140625 -21.66015625 3.3828125 C-14.42182212 1.02454431 -7.60993578 -0.05450128 0 0 Z " fill="#027ED8" transform="translate(750.375,428.6875)"/>
<path d="M0 0 C7.26 0 14.52 0 22 0 C22 6.27 22 12.54 22 19 C28.93 19 35.86 19 43 19 C43 24.61 43 30.22 43 36 C36.07 36 29.14 36 22 36 C22.07425836 40.16358966 22.15730432 44.32513005 22.26245117 48.48779297 C22.29556291 49.9017449 22.32363716 51.31582464 22.34643555 52.72998047 C22.38023775 54.77105823 22.43255964 56.81097928 22.48828125 58.8515625 C22.51446533 60.07697754 22.54064941 61.30239258 22.56762695 62.56494141 C23.16243994 67.29053073 24.58716676 70.71182852 28.125 73.9375 C32.24135126 75.45876025 35.75065117 74.76840077 40 74 C43.06802099 79.62470514 44.89061647 84.69403048 46 91 C37.12073619 95.74937366 27.91623637 96.2177947 18.1640625 93.75390625 C11.71101085 91.50582147 6.81722688 87.67130851 3 82 C0.38328354 76.0008246 -0.42474469 70.51984809 -0.29296875 64.02734375 C-0.28872391 63.21882462 -0.28447906 62.41030548 -0.28010559 61.57728577 C-0.26350035 59.03033127 -0.22588533 56.4842096 -0.1875 53.9375 C-0.17242958 52.19597508 -0.15874534 50.45443759 -0.14648438 48.71289062 C-0.11365684 44.47494639 -0.06200455 40.23761368 0 36 C-3.63 36 -7.26 36 -11 36 C-11 30.39 -11 24.78 -11 19 C-7.37 19 -3.74 19 0 19 C0 12.73 0 6.46 0 0 Z " fill="#017FD9" transform="translate(861,412)"/>
<path d="M0 0 C3.23910567 2.34318283 4.69475248 3.8807591 5.75 7.75 C4.33702573 13.87288851 -0.35458088 18.11990198 -4.41015625 22.75390625 C-20.74878243 41.71883401 -26.65848754 60.15881825 -25.24365234 85.15820312 C-24.22039605 97.09277554 -19.9261222 107.96849238 -12.390625 117.28515625 C-11.70734131 118.13376221 -11.70734131 118.13376221 -11.01025391 118.99951172 C-10.11115059 120.09510572 -9.19233471 121.17492136 -8.25146484 122.23486328 C-5.75512195 125.22454702 -4.70135392 127.41598294 -4.64453125 131.2421875 C-5 135 -5 135 -6.0625 137.4375 C-9.15834307 139.93414764 -11.02493168 140.19549516 -15 140 C-28.61306034 132.18610337 -36.8401966 113.24856559 -41.22265625 98.97265625 C-47.666597 74.33024967 -44.0262682 49.25671079 -31.36450195 27.24316406 C-24.9545874 16.65299885 -13.44752384 -1.3675448 0 0 Z " fill="#16C7B3" transform="translate(202,409)"/>
<path d="M0 0 C0 6.93 0 13.86 0 21 C-2.000625 21.061875 -4.00125 21.12375 -6.0625 21.1875 C-11.16920261 21.58758987 -14.58284679 22.21831915 -18.6328125 25.35546875 C-23.21972275 30.87286651 -23.46363088 36.14688542 -23.51171875 42.9921875 C-23.52966995 43.93812775 -23.54762115 44.88406799 -23.56611633 45.8586731 C-23.62006637 48.86407079 -23.65406604 51.86931104 -23.6875 54.875 C-23.72068657 56.91929267 -23.75517747 58.9635646 -23.79101562 61.0078125 C-23.87822703 66.00522908 -23.93842661 71.00193935 -24 76 C-31.59 76 -39.18 76 -47 76 C-47 51.58 -47 27.16 -47 2 C-40.07 2 -33.14 2 -26 2 C-25.67 4.97 -25.34 7.94 -25 11 C-24.67 10.278125 -24.34 9.55625 -24 8.8125 C-17.97137866 0.33475124 -9.61798657 -0.11315278 0 0 Z " fill="#027DD8" transform="translate(847,429)"/>
<path d="M0 0 C3.5 1.8125 3.5 1.8125 6 4 C6.928125 4.804375 6.928125 4.804375 7.875 5.625 C9 7 9 7 9 9 C9.60328125 8.51789062 10.2065625 8.03578125 10.828125 7.5390625 C12.02695312 6.59160156 12.02695312 6.59160156 13.25 5.625 C14.03890625 4.99851562 14.8278125 4.37203125 15.640625 3.7265625 C21.56941487 -0.61205525 26.76025001 -0.75908257 34 0 C39.38102453 1.68216752 42.31269087 5.14217196 45 10 C45.91861784 12.75585352 46.12204322 14.3596069 46.11352539 17.19604492 C46.11341209 18.45701241 46.11341209 18.45701241 46.11329651 19.74345398 C46.10813522 20.64666885 46.10297394 21.54988373 46.09765625 22.48046875 C46.0962413 23.40845779 46.09482635 24.33644684 46.09336853 25.29255676 C46.08776937 28.25757058 46.07521704 31.22250899 46.0625 34.1875 C46.05748489 36.19726453 46.052922 38.20703025 46.04882812 40.21679688 C46.03780021 45.14456032 46.02053617 50.07226737 46 55 C43.03 55 40.06 55 37 55 C36.970271 53.21384277 36.970271 53.21384277 36.93994141 51.39160156 C36.86383005 46.97081468 36.77512106 42.55035457 36.68261719 38.12988281 C36.64435032 36.21718805 36.60949342 34.30442189 36.578125 32.39160156 C36.53242473 29.64101658 36.47443855 26.89092217 36.4140625 24.140625 C36.40251129 23.28631897 36.39096008 22.43201294 36.37905884 21.55181885 C36.35918915 20.75129089 36.33931946 19.95076294 36.31884766 19.12597656 C36.30552399 18.42426331 36.29220032 17.72255005 36.2784729 16.99957275 C35.95060343 14.64530829 35.22203605 13.03095113 34 11 C30.34155655 8.50947401 27.40556023 8.85867931 23.18359375 9.46875 C19.90857852 10.26553367 18.24015578 11.49629648 16 14 C13.39603914 19.10903713 12.54020543 23.3713394 12.48828125 29.12109375 C12.47033005 29.86585464 12.45237885 30.61061554 12.43388367 31.37794495 C12.3801769 33.73107423 12.34601457 36.08400544 12.3125 38.4375 C12.27929171 40.04364713 12.24479885 41.64976824 12.20898438 43.25585938 C12.12447426 47.17042899 12.05747629 51.08494394 12 55 C9.36 55 6.72 55 4 55 C3.98541748 53.95134766 3.97083496 52.90269531 3.95581055 51.82226562 C3.89747367 47.90070918 3.82024563 43.97970585 3.73754883 40.05859375 C3.70446491 38.36727939 3.67638241 36.67585901 3.65356445 34.984375 C3.61971164 32.54121061 3.56738492 30.09900345 3.51171875 27.65625 C3.50532883 26.91008423 3.4989389 26.16391846 3.49235535 25.3951416 C3.34479492 20.02665995 2.26051618 15.89372917 0 11 C-3.75549055 8.49633964 -5.40891015 8.85571168 -9.71484375 9.46484375 C-14.33698281 10.54729341 -17.15042476 12.63127519 -19.63208008 16.62939453 C-21.23029725 20.56746099 -21.4753232 24.05799036 -21.51171875 28.2421875 C-21.52966995 29.01055939 -21.54762115 29.77893127 -21.56611633 30.57058716 C-21.61994958 33.00533695 -21.65402692 35.4398938 -21.6875 37.875 C-21.72069705 39.53388086 -21.75518891 41.19273635 -21.79101562 42.8515625 C-21.87565991 46.90090182 -21.94259857 50.95018661 -22 55 C-24.97 55 -27.94 55 -31 55 C-31 37.18 -31 19.36 -31 1 C-28.69 1 -26.38 1 -24 1 C-23.67 3.31 -23.34 5.62 -23 8 C-22.55269531 7.59007812 -22.10539063 7.18015625 -21.64453125 6.7578125 C-21.03996094 6.21898437 -20.43539062 5.68015625 -19.8125 5.125 C-19.22082031 4.59132813 -18.62914062 4.05765625 -18.01953125 3.5078125 C-12.53399422 -0.58777221 -6.61105694 -0.8057529 0 0 Z " fill="#16C7B3" transform="translate(859,552)"/>
<path d="M0 0 C3.38798215 2.85533547 5.13757909 6.14320601 6.515625 10.27734375 C6.60151803 11.67389834 6.63335215 13.07420152 6.62915039 14.47338867 C6.62907486 15.31403366 6.62899933 16.15467865 6.62892151 17.02079773 C6.62376022 17.9240126 6.61859894 18.82722748 6.61328125 19.7578125 C6.6118663 20.68580154 6.61045135 21.61379059 6.60899353 22.56990051 C6.60339437 25.53491433 6.59084204 28.49985274 6.578125 31.46484375 C6.57310989 33.47460828 6.568547 35.484374 6.56445312 37.49414062 C6.55342521 42.42190407 6.53616117 47.34961112 6.515625 52.27734375 C4.205625 52.27734375 1.895625 52.27734375 -0.484375 52.27734375 C-0.484375 49.63734375 -0.484375 46.99734375 -0.484375 44.27734375 C-1.144375 44.27734375 -1.804375 44.27734375 -2.484375 44.27734375 C-2.484375 44.93734375 -2.484375 45.59734375 -2.484375 46.27734375 C-4.53125 47.75 -4.53125 47.75 -7.234375 49.33984375 C-8.11609375 49.86707031 -8.9978125 50.39429688 -9.90625 50.9375 C-15.12992437 53.65222774 -20.89159701 54.39419983 -26.5703125 52.62890625 C-31.73377982 50.31424849 -35.33859308 46.96880398 -38.484375 42.27734375 C-40.14945441 37.28210552 -39.97933313 33.58223337 -38.109375 28.65234375 C-34.54490163 23.04019419 -28.08006468 20.85913626 -21.859375 19.46484375 C-15.10481846 18.96035405 -8.25280763 19.20341669 -1.484375 19.27734375 C-2.474375 15.31734375 -3.464375 11.35734375 -4.484375 7.27734375 C-13.84593044 5.40503266 -19.81330708 6.34377982 -28.484375 10.27734375 C-30.14814148 10.95121565 -31.81405726 11.61987826 -33.484375 12.27734375 C-34.474375 9.96734375 -35.464375 7.65734375 -36.484375 5.27734375 C-27.25918846 -3.4747563 -11.40162243 -6.96490414 0 0 Z " fill="#17C8B6" transform="translate(774.484375,554.72265625)"/>
<path d="M0 0 C15.18 0 30.36 0 46 0 C46 3.3 46 6.6 46 10 C34.12 10 22.24 10 10 10 C10 17.26 10 24.52 10 32 C20.23 32 30.46 32 41 32 C41 35.3 41 38.6 41 42 C30.77 42 20.54 42 10 42 C10 51.9 10 61.8 10 72 C6.7 72 3.4 72 0 72 C0 48.24 0 24.48 0 0 Z " fill="#17C9B6" transform="translate(505,535)"/>
<path d="M0 0 C15.18 0 30.36 0 46 0 C46 3.3 46 6.6 46 10 C34.12 10 22.24 10 10 10 C10 17.26 10 24.52 10 32 C20.23 32 30.46 32 41 32 C41 35.3 41 38.6 41 42 C30.77 42 20.54 42 10 42 C10 51.9 10 61.8 10 72 C6.7 72 3.4 72 0 72 C0 48.24 0 24.48 0 0 Z " fill="#17C9B6" transform="translate(687,535)"/>
<path d="M0 0 C2.97 0 5.94 0 9 0 C9.33 7.92 9.66 15.84 10 24 C12.64 22.02 15.28 20.04 18 18 C24.21460611 15.92846463 31.5588382 15.86660345 37.5 18.625 C43.39724974 24.22738725 47.01386028 28.95592141 47.22705078 37.26123047 C47.22673743 38.87991736 47.21563545 40.49862817 47.1953125 42.1171875 C47.1924826 42.97434357 47.18965271 43.83149963 47.18673706 44.71463013 C47.17559999 47.43489932 47.1505076 50.15483141 47.125 52.875 C47.11496182 54.72655772 47.10583744 56.57812064 47.09765625 58.4296875 C47.07568188 62.9532536 47.041197 67.47656977 47 72 C44.03 72 41.06 72 38 72 C37.98541748 70.94611084 37.97083496 69.89222168 37.95581055 68.80639648 C37.89755055 64.87181787 37.82032096 60.93779507 37.73754883 57.00366211 C37.70442917 55.30551214 37.67635739 53.60725552 37.65356445 51.90893555 C37.61977831 49.45836213 37.56745361 47.00875469 37.51171875 44.55859375 C37.50532883 43.80726669 37.4989389 43.05593964 37.49235535 42.28184509 C37.35208597 37.17808798 36.36868356 33.54432067 34 29 C31.10532581 26.50736389 29.36696254 26.04003228 25.5625 25.625 C21.70743189 26.03079664 19.34552422 27.09913397 16 29 C15.01 29.33 14.02 29.66 13 30 C11.81608777 32.37625345 11.81608777 32.37625345 11 35 C10.67 35.99 10.34 36.98 10 38 C9.84677641 40.58330229 9.74293111 43.14492239 9.68359375 45.73046875 C9.66281265 46.48088943 9.64203156 47.23131012 9.62062073 48.00447083 C9.55530074 50.39872184 9.49632208 52.79308139 9.4375 55.1875 C9.39429807 56.81186013 9.35068324 58.43620933 9.30664062 60.06054688 C9.19963737 64.04025371 9.09832063 68.02006958 9 72 C6.03 72 3.06 72 0 72 C0 48.24 0 24.48 0 0 Z " fill="#19C8B4" transform="translate(628,535)"/>
<path d="M0 0 C2.32421875 1.60546875 2.32421875 1.60546875 4 3 C2.79618552 5.49361571 1.54571278 7.68143083 0 10 C-2.48271428 9.40414857 -4.87715363 8.71864883 -7.3125 7.9375 C-13.79251441 6.29003871 -18.78919298 6.97198138 -25 9 C-25 10.98 -25 12.96 -25 15 C-20.55824189 17.44749937 -16.28363026 19.2767024 -11.42456055 20.765625 C-4.77887522 22.80366783 0.16611485 24.82083734 5 30 C6.88819097 33.77638194 6.61526872 37.89615761 6 42 C3.67184024 47.06660998 -0.21616115 49.38826348 -5.25 51.4375 C-14.97046945 54.47186276 -22.84002187 53.35908927 -32 49 C-35.1875 46.75 -35.1875 46.75 -37 45 C-35.55746343 41.63408134 -33.66735273 39.48952921 -31 37 C-30.20335937 37.52400391 -30.20335937 37.52400391 -29.390625 38.05859375 C-28.68421875 38.51363281 -27.9778125 38.96867188 -27.25 39.4375 C-26.20585938 40.11619141 -26.20585938 40.11619141 -25.140625 40.80859375 C-18.32210113 44.6035751 -11.13685658 43.00332816 -4 41 C-4 38.69 -4 36.38 -4 34 C-9.90048373 30.80390465 -15.94131029 28.45875881 -22.27539062 26.28271484 C-27.13860744 24.54669239 -31.12837281 22.49550292 -34.3125 18.25 C-35.71021989 13.67564398 -35.68384327 9.58363705 -33.8125 5.25 C-25.16483342 -5.48503438 -11.83910618 -4.53055559 0 0 Z " fill="#14C6B2" transform="translate(613,555)"/>
<path d="M0 0 C0 2.64 0 5.28 0 8 C-0.59167969 8.15855469 -1.18335938 8.31710937 -1.79296875 8.48046875 C-7.78979775 10.25114746 -11.53455516 12.2958301 -15.10302734 17.65722656 C-16.40798442 21.06560111 -16.3581937 24.44389777 -16.4140625 28.046875 C-16.43342865 28.81807678 -16.4527948 29.58927856 -16.4727478 30.3838501 C-16.53237077 32.83912205 -16.57885914 35.29444133 -16.625 37.75 C-16.66319575 39.41798882 -16.70224841 41.08595826 -16.7421875 42.75390625 C-16.83805791 46.83577943 -16.92215235 50.91774493 -17 55 C-19.97 55 -22.94 55 -26 55 C-26 37.18 -26 19.36 -26 1 C-24.02 1 -22.04 1 -20 1 C-19.34 3.31 -18.68 5.62 -18 8 C-17.45730469 7.50628906 -16.91460938 7.01257813 -16.35546875 6.50390625 C-15.28232422 5.54291016 -15.28232422 5.54291016 -14.1875 4.5625 C-13.47980469 3.92441406 -12.77210938 3.28632812 -12.04296875 2.62890625 C-8.21725385 -0.42142475 -4.71639479 -0.08898858 0 0 Z " fill="#16C7B3" transform="translate(820,552)"/>
<path d="M0 0 C1.64935547 0.03383789 1.64935547 0.03383789 3.33203125 0.06835938 C6.01449836 0.12667388 8.69398433 0.20844816 11.375 0.3125 C11.375 0.6425 11.375 0.9725 11.375 1.3125 C10.19421875 1.36148438 9.0134375 1.41046875 7.796875 1.4609375 C6.23956063 1.53598879 4.68227009 1.61153561 3.125 1.6875 C2.34769531 1.7184375 1.57039062 1.749375 0.76953125 1.78125 C-4.69879907 2.03908242 -4.69879907 2.03908242 -9.625 4.3125 C-9.625 4.9725 -9.625 5.6325 -9.625 6.3125 C-8.965 5.9825 -8.305 5.6525 -7.625 5.3125 C-6.17651418 5.22907841 -4.72429131 5.20517139 -3.2734375 5.21484375 C-2.42265625 5.21806641 -1.571875 5.22128906 -0.6953125 5.22460938 C0.19414063 5.23298828 1.08359375 5.24136719 2 5.25 C2.8971875 5.25451172 3.794375 5.25902344 4.71875 5.26367188 C6.93756648 5.27547409 9.15625018 5.29193845 11.375 5.3125 C11.375 5.6425 11.375 5.9725 11.375 6.3125 C10.77026855 6.35213867 10.16553711 6.39177734 9.54248047 6.43261719 C6.77670627 6.62430975 4.01371327 6.84315768 1.25 7.0625 C-0.17699219 7.1553125 -0.17699219 7.1553125 -1.6328125 7.25 C-7.43413477 7.73344352 -11.2055371 8.41297391 -15.625 12.3125 C-16.94794477 15.24753351 -16.94794477 15.24753351 -16.625 18.3125 C-14.44067858 21.19892473 -13.07196406 22.16351198 -9.625 23.3125 C-4.1934415 23.63200344 0.19619276 22.76620028 5.375 21.3125 C5.21 22.055 5.045 22.7975 4.875 23.5625 C4.25574304 26.50256578 4.25574304 26.50256578 4.375 30.3125 C-1.80995488 32.96319495 -7.07643015 34.75431082 -13.6953125 32.65625 C-18.87504067 30.37165507 -22.48022238 27.00246248 -25.625 22.3125 C-27.29007941 17.31726177 -27.11995813 13.61738962 -25.25 8.6875 C-19.66252015 0.01647822 -9.29364276 -0.3670029 0 0 Z " fill="#12C5B1" transform="translate(761.625,574.6875)"/>
<path d="M0 0 C2.97 0 5.94 0 9 0 C9 17.82 9 35.64 9 54 C6.03 54 3.06 54 0 54 C0 36.18 0 18.36 0 0 Z " fill="#1AC7B1" transform="translate(559,553)"/>
<path d="M0 0 C0.93457031 0.00322266 1.86914062 0.00644531 2.83203125 0.00976562 C3.80011719 0.01814453 4.76820313 0.02652344 5.765625 0.03515625 C6.74917969 0.03966797 7.73273437 0.04417969 8.74609375 0.04882812 C11.16933291 0.06059142 13.59244773 0.07702941 16.015625 0.09765625 C15.00957275 9.59166392 15.00957275 9.59166392 11.015625 14.09765625 C6.23003033 17.44757252 1.9054282 18.86114926 -3.984375 18.09765625 C-10.93057166 15.29246144 -10.93057166 15.29246144 -12.984375 12.09765625 C-13.49081239 8.1185053 -13.65033388 6.00145759 -11.234375 2.72265625 C-7.6174541 0.1104356 -4.38300773 -0.02672566 0 0 Z " fill="#F9FCFC" transform="translate(751.984375,472.90234375)"/>
<path d="M0 0 C3.38798215 2.85533547 5.13757909 6.14320601 6.515625 10.27734375 C6.60151803 11.67389834 6.63335215 13.07420152 6.62915039 14.47338867 C6.62907486 15.31403366 6.62899933 16.15467865 6.62892151 17.02079773 C6.62376022 17.9240126 6.61859894 18.82722748 6.61328125 19.7578125 C6.6118663 20.68580154 6.61045135 21.61379059 6.60899353 22.56990051 C6.60339437 25.53491433 6.59084204 28.49985274 6.578125 31.46484375 C6.57310989 33.47460828 6.568547 35.484374 6.56445312 37.49414062 C6.55342521 42.42190407 6.53616117 47.34961112 6.515625 52.27734375 C4.205625 52.27734375 1.895625 52.27734375 -0.484375 52.27734375 C-0.484375 49.63734375 -0.484375 46.99734375 -0.484375 44.27734375 C0.175625 43.94734375 0.835625 43.61734375 1.515625 43.27734375 C1.515625 45.58734375 1.515625 47.89734375 1.515625 50.27734375 C2.505625 50.27734375 3.495625 50.27734375 4.515625 50.27734375 C4.185625 37.07734375 3.855625 23.87734375 3.515625 10.27734375 C2.855625 10.27734375 2.195625 10.27734375 1.515625 10.27734375 C1.185625 10.93734375 0.855625 11.59734375 0.515625 12.27734375 C-0.144375 12.27734375 -0.804375 12.27734375 -1.484375 12.27734375 C-2.609375 5.65234375 -2.609375 5.65234375 -1.484375 2.27734375 C-4.454375 1.28734375 -7.424375 0.29734375 -10.484375 -0.72265625 C-10.484375 0.59734375 -10.484375 1.91734375 -10.484375 3.27734375 C-9.494375 3.93734375 -8.504375 4.59734375 -7.484375 5.27734375 C-8.16242187 5.303125 -8.84046875 5.32890625 -9.5390625 5.35546875 C-16.57309242 5.78413539 -22.0968793 7.38880047 -28.484375 10.27734375 C-30.14829545 10.95083536 -31.81427132 11.6193347 -33.484375 12.27734375 C-34.474375 9.96734375 -35.464375 7.65734375 -36.484375 5.27734375 C-27.25918846 -3.4747563 -11.40162243 -6.96490414 0 0 Z " fill="#0FC4B0" transform="translate(774.484375,554.72265625)"/>
<path d="M0 0 C0.94101562 0.00322266 1.88203125 0.00644531 2.8515625 0.00976562 C3.83640625 0.01814453 4.82125 0.02652344 5.8359375 0.03515625 C6.82851563 0.03966797 7.82109375 0.04417969 8.84375 0.04882812 C11.2995391 0.0606348 13.75520854 0.07710225 16.2109375 0.09765625 C15.33831128 6.3631125 13.40156066 10.07132983 8.7109375 14.41015625 C4.30153106 17.38650559 0.50491805 17.46275836 -4.7890625 17.09765625 C-8.76972345 15.52041323 -10.39573524 14.68764714 -12.7890625 11.09765625 C-12.7265625 8.16015625 -12.7265625 8.16015625 -11.7890625 5.09765625 C-7.86236154 1.37232457 -5.32995988 -0.03210819 0 0 Z " fill="#F9FDFC" transform="translate(756.7890625,581.90234375)"/>
<path d="M0 0 C15.18 0 30.36 0 46 0 C46 3.3 46 6.6 46 10 C34.12 10.33 22.24 10.66 10 11 C9.67 17.6 9.34 24.2 9 31 C8.67 31 8.34 31 8 31 C7.94210994 27.54173658 7.90644179 24.08359707 7.875 20.625 C7.84986328 19.14773438 7.84986328 19.14773438 7.82421875 17.640625 C7.81777344 16.69960938 7.81132813 15.75859375 7.8046875 14.7890625 C7.79421387 13.91975098 7.78374023 13.05043945 7.77294922 12.15478516 C8 10 8 10 10 8 C12.65291757 7.82489614 15.19986174 7.76844517 17.8515625 7.8046875 C18.62559418 7.8075174 19.39962585 7.81034729 20.19711304 7.81326294 C22.67323157 7.82447246 25.1489905 7.84957797 27.625 7.875 C29.30207812 7.88502882 30.97916189 7.89415484 32.65625 7.90234375 C36.77097223 7.92441426 40.88542511 7.95894898 45 8 C45 6.02 45 4.04 45 2 C30.81 2 16.62 2 2 2 C2 24.44 2 46.88 2 70 C3.98 70 5.96 70 8 70 C8 70.66 8 71.32 8 72 C5.36 72 2.72 72 0 72 C0 48.24 0 24.48 0 0 Z " fill="#03C1A9" transform="translate(687,535)"/>
<path d="M0 0 C0.33 0 0.66 0 1 0 C1 2.64 1 5.28 1 8 C-10.55 8 -22.1 8 -34 8 C-34 15.26 -34 22.52 -34 30 C-23.77 30 -13.54 30 -3 30 C-3 33.3 -3 36.6 -3 40 C-13.23 40 -23.46 40 -34 40 C-34 49.9 -34 59.8 -34 70 C-36.64 70 -39.28 70 -42 70 C-42 69.34 -42 68.68 -42 68 C-40.02 68 -38.04 68 -36 68 C-36.01047363 67.16227051 -36.02094727 66.32454102 -36.03173828 65.46142578 C-36.06580019 62.35661836 -36.09088911 59.25190608 -36.10986328 56.14697266 C-36.12488107 54.1408864 -36.15028981 52.13488676 -36.17578125 50.12890625 C-36.18222656 48.87207031 -36.18867187 47.61523438 -36.1953125 46.3203125 C-36.20578613 45.15773926 -36.21625977 43.99516602 -36.22705078 42.79736328 C-36 40 -36 40 -34 38 C-31.11083984 37.77294922 -31.11083984 37.77294922 -27.4609375 37.8046875 C-25.50800781 37.81435547 -25.50800781 37.81435547 -23.515625 37.82421875 C-22.13541405 37.84093071 -20.75520571 37.85786061 -19.375 37.875 C-17.98698548 37.88502994 -16.59896411 37.89415577 -15.2109375 37.90234375 C-11.80711974 37.92598137 -8.40364494 37.95893133 -5 38 C-5 36.02 -5 34.04 -5 32 C-6.30203369 32.01571045 -6.30203369 32.01571045 -7.63037109 32.03173828 C-10.84699528 32.06579716 -14.06352767 32.09088767 -17.28027344 32.10986328 C-18.67320781 32.11992877 -20.06612102 32.13358234 -21.45898438 32.15087891 C-23.4595436 32.1751022 -25.46025615 32.18540814 -27.4609375 32.1953125 C-28.66540527 32.20578613 -29.86987305 32.21625977 -31.11083984 32.22705078 C-34 32 -34 32 -36 30 C-36.25878906 27.78515625 -36.25878906 27.78515625 -36.265625 25.0625 C-36.26820313 24.08539062 -36.27078125 23.10828125 -36.2734375 22.1015625 C-36.26570312 21.07804688 -36.25796875 20.05453125 -36.25 19 C-36.25773438 17.97648438 -36.26546875 16.95296875 -36.2734375 15.8984375 C-36.27085937 14.92132812 -36.26828125 13.94421875 -36.265625 12.9375 C-36.26336914 12.03902344 -36.26111328 11.14054688 -36.25878906 10.21484375 C-36 8 -36 8 -34 6 C-31.41896694 5.82497005 -28.94691837 5.76837721 -26.3671875 5.8046875 C-25.23943405 5.80893234 -25.23943405 5.80893234 -24.08889771 5.81326294 C-21.68410422 5.82447126 -19.27968119 5.84957648 -16.875 5.875 C-15.24609912 5.88502898 -13.61719242 5.89415497 -11.98828125 5.90234375 C-7.99204444 5.92441265 -3.99608506 5.95894649 0 6 C0 4.02 0 2.04 0 0 Z " fill="#08C0A9" transform="translate(549,537)"/>
<path d="M0 0 C5.50619612 3.26293103 5.50619612 3.26293103 6.55078125 6.9375 C6.80755538 10.81112119 6.19738751 12.69436773 4.0625 16 C0.5064288 18.32233221 -1.65044158 18.79884465 -5.8359375 18.546875 C-8.28199789 17.92873699 -9.38434558 17.2462247 -11.125 15.4375 C-13 12 -13 12 -13.0625 8.375 C-11.93025993 4.77847271 -10.92814395 3.3070225 -8 1 C-5.09704195 -0.45147903 -3.22738221 -0.37239025 0 0 Z " fill="#F7FBFD" transform="translate(409,446)"/>
<path d="M0 0 C2.64 0 5.28 0 8 0 C8 8.25 8 16.5 8 25 C7.67 25 7.34 25 7 25 C7 17.08 7 9.16 7 1 C5.35 1 3.7 1 2 1 C2 23.77 2 46.54 2 70 C3.65 70 5.3 70 7 70 C6.98952637 69.10168457 6.97905273 68.20336914 6.96826172 67.27783203 C6.9342053 63.94935553 6.90911382 60.62106378 6.89013672 57.29248047 C6.88007037 55.85104453 6.8664162 54.40962905 6.84912109 52.96826172 C6.82489988 50.89806066 6.81352359 48.82812924 6.8046875 46.7578125 C6.79421387 45.5114502 6.78374023 44.26508789 6.77294922 42.98095703 C7 40 7 40 9 38 C9 49.22 9 60.44 9 72 C6.03 72 3.06 72 0 72 C0 48.24 0 24.48 0 0 Z " fill="#02C3AB" transform="translate(628,535)"/>
<path d="M0 0 C15.18 0 30.36 0 46 0 C46 3.3 46 6.6 46 10 C45.67 10 45.34 10 45 10 C45 7.36 45 4.72 45 2 C30.81 2 16.62 2 2 2 C2 25.1 2 48.2 2 72 C1.34 72 0.68 72 0 72 C0 48.24 0 24.48 0 0 Z " fill="#24C7B1" transform="translate(505,535)"/>
<path d="M0 0 C0 3 0 3 -1.46801758 5.50830078 C-3.5839197 10.33087165 -3.478314 14.65462534 -3.51171875 19.8671875 C-3.52966995 20.90191193 -3.54762115 21.93663635 -3.56611633 23.00271606 C-3.62010969 26.29343647 -3.65408042 29.58401271 -3.6875 32.875 C-3.72068269 35.11199918 -3.75517323 37.34897936 -3.79101562 39.5859375 C-3.8782816 45.05731118 -3.9384457 50.52803541 -4 56 C-11.26 56 -18.52 56 -26 56 C-26 40.16 -26 24.32 -26 8 C-23.94640098 11.08039853 -23.74261266 11.79484698 -23.68115234 15.2878418 C-23.66128265 16.14850754 -23.64141296 17.00917328 -23.62094116 17.8959198 C-23.60938995 18.82100845 -23.59783875 19.74609711 -23.5859375 20.69921875 C-23.56657135 21.64940384 -23.5472052 22.59958893 -23.5272522 23.5785675 C-23.46745088 26.6147869 -23.42106871 29.65104419 -23.375 32.6875 C-23.33682074 34.74545928 -23.29776904 36.80340258 -23.2578125 38.86132812 C-23.16174881 43.9074223 -23.07771969 48.95359129 -23 54 C-17.39 54 -11.78 54 -6 54 C-6.01047363 52.79988281 -6.02094727 51.59976563 -6.03173828 50.36328125 C-6.06811668 45.88300596 -6.0909651 41.40274358 -6.10986328 36.92236328 C-6.11988036 34.98842163 -6.13349784 33.05449496 -6.15087891 31.12060547 C-6.17531686 28.33036586 -6.18652628 25.54032764 -6.1953125 22.75 C-6.20563507 21.89446533 -6.21595764 21.03893066 -6.22659302 20.1574707 C-6.22801725 12.42409724 -5.51695621 5.8847533 0 0 Z " fill="#016CD4" transform="translate(665,449)"/>
<path d="M0 0 C0.33 0 0.66 0 1 0 C1 16.17 1 32.34 1 49 C-6.26 49 -13.52 49 -21 49 C-21 33.16 -21 17.32 -21 1 C-20.01 1.495 -20.01 1.495 -19 2 C-19 16.85 -19 31.7 -19 47 C-13.06 47 -7.12 47 -1 47 C-0.67 31.49 -0.34 15.98 0 0 Z " fill="#0164D0" transform="translate(709,456)"/>
<path d="M0 0 C0.33 0 0.66 0 1 0 C2.09507419 5.2972793 2.12893641 10.3933117 2.09765625 15.7734375 C2.09553383 17.1590538 2.09553383 17.1590538 2.09336853 18.57266235 C2.08779609 21.50680862 2.07524869 24.44087701 2.0625 27.375 C2.05748144 29.37109264 2.05291915 31.36718649 2.04882812 33.36328125 C2.03783569 38.24221725 2.0205901 43.12109545 2 48 C3.65 48 5.3 48 7 48 C6.98952637 47.04633545 6.97905273 46.0926709 6.96826172 45.11010742 C6.93205499 41.57108312 6.90909716 38.0320752 6.89013672 34.49291992 C6.88008065 32.96131639 6.866434 31.42973205 6.84912109 29.89819336 C6.82485502 27.69640364 6.81351312 25.49486781 6.8046875 23.29296875 C6.79436493 22.60849167 6.78404236 21.92401459 6.77340698 21.21879578 C6.77254618 17.56938339 6.91432334 16.12851498 9 13 C9 25.21 9 37.42 9 50 C6.03 50 3.06 50 0 50 C0 33.5 0 17 0 0 Z " fill="#02C2AB" transform="translate(828,557)"/>
<path d="M0 0 C7.26 0 14.52 0 22 0 C22 6.27 22 12.54 22 19 C21.67 19 21.34 19 21 19 C21 13.06 21 7.12 21 1 C14.73 1 8.46 1 2 1 C2 7.27 2 13.54 2 20 C-1.63 20 -5.26 20 -9 20 C-9 24.62 -9 29.24 -9 34 C-6.03 34 -3.06 34 0 34 C-0.33 34.66 -0.66 35.32 -1 36 C-4.3 36 -7.6 36 -11 36 C-11 30.39 -11 24.78 -11 19 C-7.37 19 -3.74 19 0 19 C0 12.73 0 6.46 0 0 Z " fill="#0961CF" transform="translate(861,412)"/>
<path d="M0 0 C4.4375 4.09615385 4.4375 4.09615385 6.4375 6.25 C6.1075 7.24 5.7775 8.23 5.4375 9.25 C4.695 8.30125 3.9525 7.3525 3.1875 6.375 C0.53449999 3.2416518 -1.28542961 1.45907233 -5.51953125 1.0703125 C-7.97356785 0.95574618 -7.97356785 0.95574618 -11.5625 1.25 C-12.2225 1.91 -12.8825 2.57 -13.5625 3.25 C-12.95921875 3.42015625 -12.3559375 3.5903125 -11.734375 3.765625 C-7.05186628 5.18548248 -3.70938851 6.28218406 -0.5625 10.25 C-0.8925 10.91 -1.2225 11.57 -1.5625 12.25 C-2.160625 11.610625 -2.75875 10.97125 -3.375 10.3125 C-6.19871039 7.65014449 -7.9618686 7.28465181 -11.8125 7.0625 C-15.79538287 7.26164414 -18.79497809 8.01978876 -22.5625 9.25 C-22.2325 8.59 -21.9025 7.93 -21.5625 7.25 C-20.9025 7.25 -20.2425 7.25 -19.5625 7.25 C-20.8825 5.6 -22.2025 3.95 -23.5625 2.25 C-16.94150865 -3.00113107 -7.60640482 -3.73647956 0 0 Z " fill="#0EC2AC" transform="translate(665.5625,553.75)"/>
<path d="M0 0 C0.66 0.33 1.32 0.66 2 1 C2 16.84 2 32.68 2 49 C-3.94 49 -9.88 49 -16 49 C-16 46.69 -16 44.38 -16 42 C-15.67 42 -15.34 42 -15 42 C-15 43.65 -15 45.3 -15 47 C-10.05 47 -5.1 47 0 47 C0 31.49 0 15.98 0 0 Z " fill="#096ED3" transform="translate(787,456)"/>
<path d="M0 0 C0.66 0 1.32 0 2 0 C2 16.5 2 33 2 50 C3.65 50 5.3 50 7 50 C7 50.66 7 51.32 7 52 C4.69 52 2.38 52 0 52 C0 34.84 0 17.68 0 0 Z " fill="#04C0A8" transform="translate(794,555)"/>
<path d="M0 0 C7.15482338 -0.4934361 10.36929032 0.85338494 15.875 5.625 C17 7 17 7 17 9 C18.65 7.68 20.3 6.36 22 5 C22.66 5.33 23.32 5.66 24 6 C22.35 7.65 20.7 9.3 19 11 C18.01 10.67 17.02 10.34 16 10 C16 9.34 16 8.68 16 8 C15.113125 8.53625 14.22625 9.0725 13.3125 9.625 C10 11 10 11 7.625 10.25 C6.75875 9.8375 5.8925 9.425 5 9 C2.33731672 8.53216406 -0.30746608 8.27381701 -3 8 C-1 6 -1 6 2.125 5.875 C3.07375 5.91625 4.0225 5.9575 5 6 C5.33 4.68 5.66 3.36 6 2 C4.35 2 2.7 2 1 2 C0.67 1.34 0.34 0.68 0 0 Z " fill="#0DC2AD" transform="translate(851,552)"/>
<path d="M0 0 C10.56 0 21.12 0 32 0 C32 2.97 32 5.94 32 9 C21.77 9 11.54 9 1 9 C1 8.67 1 8.34 1 8 C10.57 8 20.14 8 30 8 C30 6.02 30 4.04 30 2 C20.43 2 10.86 2 1 2 C0.67 1.34 0.34 0.68 0 0 Z " fill="#06BBA3" transform="translate(696,567)"/>
<path d="M0 0 C2.31282587 3.46923881 2.42478586 4.92205575 2 9 C0.8125 10.9375 0.8125 10.9375 -1 12 C-4.34192692 11.75546876 -5.60543557 11.39456443 -8 9 C-8.333728 5.86295684 -8.52849028 3.83445834 -6.8125 1.125 C-4.36063578 -0.39684676 -2.83181098 -0.43566323 0 0 Z " fill="#0EC0A8" transform="translate(566,535)"/>
<path d="M0 0 C0.66 0 1.32 0 2 0 C2 13.2 2 26.4 2 40 C-0.31 40 -2.62 40 -5 40 C-5 39.34 -5 38.68 -5 38 C-3.35 38 -1.7 38 0 38 C0 25.46 0 12.92 0 0 Z " fill="#04BFA5" transform="translate(903,567)"/>
<path d="M0 0 C2 0 2 0 3.62109375 1.609375 C4.22050781 2.31578125 4.81992188 3.0221875 5.4375 3.75 C6.33275391 4.79414063 6.33275391 4.79414063 7.24609375 5.859375 C8.89081098 7.86673589 10.46126108 9.91070312 12 12 C9.43573501 10.90102929 7.96654483 9.96330723 6.0625 7.875 C4.12211906 5.73247996 4.12211906 5.73247996 1.25 5.75 C0.5075 5.8325 -0.235 5.915 -1 6 C-1.86419223 8.59257669 -2.17580932 10.34037707 -2.31640625 13.01171875 C-2.35830078 13.76904297 -2.40019531 14.52636719 -2.44335938 15.30664062 C-2.48267578 16.09232422 -2.52199219 16.87800781 -2.5625 17.6875 C-2.60568359 18.48478516 -2.64886719 19.28207031 -2.69335938 20.10351562 C-2.79927368 22.06881447 -2.90012551 24.03438496 -3 26 C-3.66 26 -4.32 26 -5 26 C-5.56195662 8.84991657 -5.56195662 8.84991657 -2 2 C-1.34 1.34 -0.68 0.68 0 0 Z " fill="#086BD2" transform="translate(203,457)"/>
<path d="M0 0 C0.33 0 0.66 0 1 0 C1 10.23 1 20.46 1 31 C-1.64 31 -4.28 31 -7 31 C-7 30.34 -7 29.68 -7 29 C-5.02 29 -3.04 29 -1 29 C-1.00523682 28.15703369 -1.01047363 27.31406738 -1.01586914 26.44555664 C-1.03287826 23.32772064 -1.04543406 20.20990823 -1.05493164 17.09204102 C-1.05997057 15.74079614 -1.06680177 14.38955674 -1.07543945 13.03833008 C-1.08752419 11.09979566 -1.09269828 9.161222 -1.09765625 7.22265625 C-1.10289307 6.05484619 -1.10812988 4.88703613 -1.11352539 3.68383789 C-1 1 -1 1 0 0 Z " fill="#04BFA8" transform="translate(514,576)"/>
<path d="M0 0 C0.99 0.33 1.98 0.66 3 1 C1.71937515 2.7074998 0.38232443 4.37373596 -1 6 C-1.66 6 -2.32 6 -3 6 C-2.89871456 10.74200035 -2.79437907 14.72331935 -0.25 18.8125 C4.76544723 22.18828179 10.30662565 24.04107911 16 26 C12.11487732 27.51295643 9.74567654 26.43881996 6 24.875 C4.453125 24.25238281 4.453125 24.25238281 2.875 23.6171875 C-0.91228811 21.48683794 -3.06745583 18.86508834 -5 15 C-5.35382027 9.60424085 -5.39538538 6.44011935 -2 2 C-1.34 1.34 -0.68 0.68 0 0 Z " fill="#0BC0A8" transform="translate(583,556)"/>
<path d="M0 0 C6.93 0 13.86 0 21 0 C21 5.61 21 11.22 21 17 C14.4 16.67 7.8 16.34 1 16 C1 15.67 1 15.34 1 15 C6.94 15 12.88 15 19 15 C19 10.38 19 5.76 19 1 C12.73 1 6.46 1 0 1 C0 0.67 0 0.34 0 0 Z " fill="#015DCC" transform="translate(883,431)"/>
<path d="M0 0 C1.32 0 2.64 0 4 0 C4 6.93 4 13.86 4 21 C-1.28 21.33 -6.56 21.66 -12 22 C-9.65454672 19.65454672 -8.04014162 19.04491112 -4.73828125 18.90234375 C-3.93777344 18.91394531 -3.13726563 18.92554688 -2.3125 18.9375 C-1.10013672 18.95103516 -1.10013672 18.95103516 0.13671875 18.96484375 C0.75160156 18.97644531 1.36648438 18.98804688 2 19 C2.08074203 16.37438891 2.1403623 13.75124324 2.1875 11.125 C2.21263672 10.37863281 2.23777344 9.63226563 2.26367188 8.86328125 C2.3298764 6.43778172 2.3298764 6.43778172 2 3 C1.01 2.34 0.02 1.68 -1 1 C-0.67 0.67 -0.34 0.34 0 0 Z " fill="#0369D0" transform="translate(843,429)"/>
<path d="M0 0 C0.33 0 0.66 0 1 0 C1 12.21 1 24.42 1 37 C-1.31 37 -3.62 37 -6 37 C-6 34.36 -6 31.72 -6 29 C-5.34 28.67 -4.68 28.34 -4 28 C-4 30.31 -4 32.62 -4 35 C-2.68 35 -1.36 35 0 35 C0 23.45 0 11.9 0 0 Z " fill="#00BB9F" transform="translate(780,570)"/>
<path d="M0 0 C4.95 0 9.9 0 15 0 C15 0.66 15 1.32 15 2 C10.545 2.495 10.545 2.495 6 3 C6 6.71490217 7.24902455 8.2510276 9.22265625 11.28125 C10 13 10 13 9 16 C7.82807953 14.04480616 6.6626071 12.0857461 5.5 10.125 C4.8503125 9.03445313 4.200625 7.94390625 3.53125 6.8203125 C2 4 2 4 2 2 C1.34 2 0.68 2 0 2 C0 1.34 0 0.68 0 0 Z " fill="#096BD2" transform="translate(283,378)"/>
<path d="M0 0 C3.00904608 1.42929689 5.71594984 3.11394715 8.5 4.9375 C16.95047018 10.03263643 26.27943163 11.37633521 36 12 C36 12.33 36 12.66 36 13 C23.81035915 13.51586254 15.40969244 11.93851743 5.12890625 5.3046875 C2.94542054 3.85620252 2.94542054 3.85620252 0 3 C0 2.01 0 1.02 0 0 Z " fill="#035FCD" transform="translate(510,476)"/>
<path d="M0 0 C0.66 0 1.32 0 2 0 C2 4.62 2 9.24 2 14 C4.97 14 7.94 14 11 14 C10.67 14.66 10.34 15.32 10 16 C6.7 16 3.4 16 0 16 C0 10.72 0 5.44 0 0 Z " fill="#016BD5" transform="translate(850,432)"/>
<path d="M0 0 C1.67542976 0.28604898 3.34385343 0.61781233 5 1 C5 2.98 5 4.96 5 7 C3.34385343 7.38218767 1.67542976 7.71395102 0 8 C-1 7 -1 7 -1.125 4 C-1 1 -1 1 0 0 Z " fill="#19C9B5" transform="translate(561,537)"/>
<path d="M0 0 C2.31 0 4.62 0 7 0 C7 2.64 7 5.28 7 8 C5.35 8 3.7 8 2 8 C2.99 7.67 3.98 7.34 5 7 C5 5.35 5 3.7 5 2 C4.01 2.33 3.02 2.66 2 3 C2 2.34 2 1.68 2 1 C1.34 0.67 0.68 0.34 0 0 Z M2 3 C1.67 4.65 1.34 6.3 1 8 C0.01 8 -0.98 8 -2 8 C-2 6.68 -2 5.36 -2 4 C0 3 0 3 2 3 Z " fill="#0DC3AD" transform="translate(813,552)"/>
<path d="M0 0 C-0.66 0.66 -1.32 1.32 -2 2 C-1.69105336 6.17077964 -0.96206259 9.33748316 1 13 C1 13.99 1 14.98 1 16 C1.66 16.33 2.32 16.66 3 17 C2.01 17 1.02 17 0 17 C-1.0067004 14.73192796 -2.00551766 12.46092246 -3 10.1875 C-3.28617188 9.54490234 -3.57234375 8.90230469 -3.8671875 8.24023438 C-5.13711041 5.32243531 -6 3.21734286 -6 0 C-3 -1 -3 -1 0 0 Z " fill="#0968CF" transform="translate(727,435)"/>
<path d="M0 0 C0.99 0.33 1.98 0.66 3 1 C2.48050781 1.42410156 1.96101562 1.84820312 1.42578125 2.28515625 C-2.0763295 5.23055438 -5.1915398 7.99486032 -7.75 11.8125 C-9.79552359 14.71032509 -10.71626036 15.90542012 -14 17 C-10.9644742 10.28595525 -5.23214891 5.07359894 0 0 Z " fill="#05BBA4" transform="translate(192,411)"/>
<path d="M0 0 C2.31 0 4.62 0 7 0 C7.125 2.875 7.125 2.875 7 6 C6.34 6.66 5.68 7.32 5 8 C5 6.02 5 4.04 5 2 C4.01 2 3.02 2 2 2 C2 4.64 2 7.28 2 10 C1.67 10 1.34 10 1 10 C0.67 6.7 0.34 3.4 0 0 Z " fill="#15C3AD" transform="translate(828,553)"/>
<path d="M0 0 C-2.2788252 1.92823671 -3.9930924 2.99789769 -6.875 3.875 C-10.78242094 5.28167154 -12.93460212 7.22654478 -16 10 C-13.34621818 2.83478908 -7.21775198 -0.15690765 0 0 Z " fill="#0566CF" transform="translate(672,431)"/>
<path d="M0 0 C2.52521234 3.22666021 4.65662251 6.60431967 6.75 10.125 C7.38421875 11.17945313 8.0184375 12.23390625 8.671875 13.3203125 C9.11015625 14.20460938 9.5484375 15.08890625 10 16 C9.67 16.66 9.34 17.32 9 18 C0 4.89320388 0 4.89320388 0 0 Z " fill="#0A66CE" transform="translate(202,498)"/>
<path d="M0 0 C4.2829452 0.5479083 6.85135641 2.02432804 10.3125 4.5625 C11.19550781 5.20316406 12.07851563 5.84382813 12.98828125 6.50390625 C13.65214844 6.99761719 14.31601562 7.49132812 15 8 C12.50907189 9.24546405 11.58919267 8.7767578 9 8 C9 7.01 9 6.02 9 5 C8.071875 4.731875 7.14375 4.46375 6.1875 4.1875 C3.23759634 3.08851629 1.94384814 2.37581439 0 0 Z " fill="#0A6AD1" transform="translate(323,384)"/>
<path d="M0 0 C-4.58230864 3.66584691 -9.72061678 6.46589606 -15 9 C-10.7954595 3.59416222 -7.40534439 -0.63474381 0 0 Z " fill="#0EC1AA" transform="translate(850,553)"/>
<path d="M0 0 C0.33 0.99 0.66 1.98 1 3 C-0.45459431 4.64913882 -1.91379257 6.29421782 -3.375 7.9375 C-4.18710937 8.85402344 -4.99921875 9.77054688 -5.8359375 10.71484375 C-8 13 -8 13 -10 14 C-8.43632643 10.47761953 -6.30504111 7.72876006 -3.875 4.75 C-3.15054687 3.85796875 -2.42609375 2.9659375 -1.6796875 2.046875 C-0.84824219 1.03367187 -0.84824219 1.03367187 0 0 Z " fill="#0867CF" transform="translate(326,540)"/>
<path d="M0 0 C3.96996957 1.32332319 5.76036395 4.0089399 8.14453125 7.24609375 C9 9 9 9 8 12 C4 6.25 4 6.25 4 4 C2.68 3.34 1.36 2.68 0 2 C0 1.34 0 0.68 0 0 Z " fill="#0B66D0" transform="translate(776,436)"/>
<path d="M0 0 C0.33 0 0.66 0 1 0 C1 2.31 1 4.62 1 7 C1.99 7 2.98 7 4 7 C4 7.66 4 8.32 4 9 C2.35 9 0.7 9 -1 9 C-1.09765625 2.84765625 -1.09765625 2.84765625 -1 1 C-0.67 0.67 -0.34 0.34 0 0 Z " fill="#06BFA8" transform="translate(775,598)"/>
<path d="M0 0 C3.80635497 3.20760251 7.54563567 6.40746109 11 10 C8 10 8 10 5.95703125 8.3203125 C5.24933594 7.59585938 4.54164063 6.87140625 3.8125 6.125 C2.73935547 5.04605469 2.73935547 5.04605469 1.64453125 3.9453125 C0 2 0 2 0 0 Z " fill="#0EC1AA" transform="translate(165,557)"/>
<path d="M0 0 C0.66 0 1.32 0 2 0 C1.979375 0.78375 1.95875 1.5675 1.9375 2.375 C1.81315937 4.98114961 1.81315937 4.98114961 3 7 C1.02 7 -0.96 7 -3 7 C-3 6.01 -3 5.02 -3 4 C-2.34 4 -1.68 4 -1 4 C-0.67 2.68 -0.34 1.36 0 0 Z " fill="#1FCDBA" transform="translate(816,554)"/>
<path d="M0 0 C1.48117801 0.28127421 2.95993249 0.57533732 4.4375 0.875 C5.67306641 1.11863281 5.67306641 1.11863281 6.93359375 1.3671875 C7.61550781 1.57601563 8.29742188 1.78484375 9 2 C9.33 2.66 9.66 3.32 10 4 C8.515 3.7525 8.515 3.7525 7 3.5 C2.97267058 2.91525483 -0.93474623 2.92867976 -5 3 C-5 2.67 -5 2.34 -5 2 C-3.35 2 -1.7 2 0 2 C0 1.34 0 0.68 0 0 Z " fill="#0974D3" transform="translate(636,429)"/>
<path d="M0 0 C0.99 0.33 1.98 0.66 3 1 C2.34 2.32 1.68 3.64 1 5 C-0.65 4.67 -2.3 4.34 -4 4 C-2.68 2.68 -1.36 1.36 0 0 Z " fill="#097AD6" transform="translate(314,553)"/>
<path d="M0 0 C2.475 0.99 2.475 0.99 5 2 C3.79618552 4.49361571 2.54571278 6.68143083 1 9 C0.34 9 -0.32 9 -1 9 C-0.649375 8.443125 -0.29875 7.88625 0.0625 7.3125 C1.21845993 4.46113217 0.80967438 2.91482778 0 0 Z " fill="#0CBEA6" transform="translate(612,556)"/>
<path d="M0 0 C3.26008643 3.16952847 6.22237877 6.39937989 9 10 C8.01 10 7.02 10 6 10 C4.39453125 8.3203125 4.39453125 8.3203125 2.8125 6.125 C2.01779297 5.04605469 2.01779297 5.04605469 1.20703125 3.9453125 C0 2 0 2 0 0 Z " fill="#0DC2A9" transform="translate(156,546)"/>
<path d="M0 0 C3.5786304 1.65167557 6.74820188 3.78286492 10 6 C7 7 7 7 5.17578125 6.22265625 C3.45052083 5.1484375 1.72526042 4.07421875 0 3 C0 2.01 0 1.02 0 0 Z " fill="#166ED1" transform="translate(510,476)"/>
<path d="M0 0 C0.66 0.33 1.32 0.66 2 1 C1.67 2.32 1.34 3.64 1 5 C1.99 5.33 2.98 5.66 4 6 C3.01 6.495 3.01 6.495 2 7 C0.68 6.01 -0.64 5.02 -2 4 C-1.34 2.68 -0.68 1.36 0 0 Z " fill="#0EBFA8" transform="translate(578,596)"/>
<path d="M0 0 C0.33 0.99 0.66 1.98 1 3 C-0.65 4.65 -2.3 6.3 -4 8 C-4 4.09161134 -2.49432124 2.88405893 0 0 Z " fill="#0EC1AA" transform="translate(183,420)"/>
</svg>
